<svg xmlns="http://www.w3.org/2000/svg" width="101" height="54" viewBox="0 0 101 54">
    <g fill="none" fill-rule="evenodd">
        <path fill="#C00" d="M95.037 0H14.765a5.965 5.965 0 0 0-5.964 5.964L8.791 42.7c.007.053.01.105.01.158C8.801 48.265 5.043 52.796 0 54h95.037A5.966 5.966 0 0 0 101 48.035V5.964A5.965 5.965 0 0 0 95.037 0"/>
        <path fill="#FFFFFE" d="M40.452 21.25l-2.709 12.498c.744 0 1.232-.146 1.47-.427.236-.291.487-1.058.768-2.325l1.598-7.384c.187-.857.276-1.414.274-1.663a.626.626 0 0 0-.278-.531c-.182-.112-.556-.168-1.123-.168zM36.125 18h3.782c2.44 0 4.07.108 4.884.326.811.218 1.386.578 1.728 1.074.343.508.497 1.06.48 1.677-.023.62-.232 1.817-.619 3.617l-1.447 6.657c-.365 1.713-.701 2.848-.985 3.424-.29.577-.673 1.032-1.153 1.356-.481.326-1.031.546-1.665.681-.626.124-1.543.188-2.755.188H32l4.125-19zM54 18l-.532 2.465h-4.925l.53-2.465H54zm-.739 3.42L49.925 37H45l3.336-15.58h4.925zM63.667 27.11h-4.442l.374-1.775c.13-.62.172-1.038.12-1.254-.06-.218-.223-.329-.49-.329s-.473.1-.606.287c-.133.197-.277.626-.416 1.3l-1.542 7.274c-.114.545-.134.958-.054 1.23.08.272.258.414.526.414.318 0 .567-.145.737-.427.176-.292.35-.833.516-1.627l.39-1.836h4.195c-.267 1.23-.507 2.16-.726 2.779-.21.62-.605 1.25-1.181 1.896a5.654 5.654 0 0 1-2.026 1.468c-.777.328-1.68.49-2.72.49-1.33 0-2.332-.224-3.01-.681-.682-.446-1.096-1.083-1.24-1.902-.15-.815-.066-1.984.26-3.483l.927-4.391c.281-1.312.622-2.3 1.025-2.972.408-.66 1.095-1.262 2.067-1.786.971-.523 2.072-.785 3.305-.785 1.228 0 2.22.259 2.977.779.76.52 1.2 1.182 1.316 1.97.122.792.025 1.907-.282 3.362M71.795 26.766l.258-1.122c.177-.795.25-1.31.204-1.55-.037-.227-.203-.342-.496-.342-.357 0-.595.1-.727.29-.132.2-.287.732-.482 1.602l-.26 1.122h1.503zm4.413 2.506H69.73l-.75 3.338c-.151.695-.202 1.138-.142 1.343.06.202.247.304.555.304.382 0 .665-.128.855-.406.185-.264.367-.785.54-1.546l.46-2.037h4.738l-.258 1.146c-.215.95-.444 1.685-.688 2.202-.244.515-.667 1.059-1.261 1.64a6.07 6.07 0 0 1-2.083 1.31c-.783.297-1.722.434-2.81.434-1.055 0-1.96-.136-2.696-.43-.744-.281-1.29-.677-1.623-1.173a3.344 3.344 0 0 1-.56-1.659c-.036-.597.076-1.474.331-2.623l1.018-4.507c.299-1.341.734-2.413 1.295-3.195.569-.782 1.332-1.374 2.307-1.788.975-.416 2.04-.625 3.183-.625 1.398 0 2.5.252 3.294.756.799.495 1.291 1.163 1.468 1.991.184.817.106 1.986-.23 3.477l-.465 2.048zM79.935 19.327h.437c.22 0 .376-.029.47-.086.091-.058.138-.152.138-.283a.293.293 0 0 0-.138-.264c-.09-.059-.229-.088-.414-.088h-.493v.721zm-.535 1.508V18.18h1.257c.31 0 .537.073.678.218a.734.734 0 0 1 .212.533c0 .205-.059.369-.177.493-.119.124-.298.208-.537.251a.658.658 0 0 1 .26.168c.063.071.165.224.304.459l.31.532h-.662l-.222-.428c-.133-.254-.25-.428-.351-.52a.566.566 0 0 0-.396-.14h-.14v1.088H79.4zm1.159-3.349c-.614 0-1.111.203-1.492.607a1.99 1.99 0 0 0-.571 1.407c0 .553.197 1.026.59 1.42.394.393.868.59 1.42.59.55 0 1.023-.197 1.417-.59.394-.394.59-.867.59-1.42 0-.38-.099-.732-.297-1.053a1.927 1.927 0 0 0-.763-.721c-.311-.16-.61-.24-.894-.24zM80.435 17c.746 0 1.36.248 1.842.744S83 18.826 83 19.5c0 .687-.245 1.276-.735 1.765-.49.49-1.078.735-1.765.735a2.407 2.407 0 0 1-1.769-.733A2.41 2.41 0 0 1 78 19.5c0-.485.129-.93.387-1.337.258-.405.58-.7.967-.886.387-.184.748-.277 1.08-.277z"/>
    </g>
</svg>
